<svg width="225" height="155" viewBox="0 0 225 155" fill="none" xmlns="http://www.w3.org/2000/svg">
<g filter="url(#filter0_dd_703_1135)">
<path d="M19.397 114.32C19.797 114.32 20.127 114.39 20.387 114.53C20.667 114.65 20.807 114.79 20.807 114.95C20.807 115.17 20.757 115.42 20.657 115.7C20.577 115.98 20.487 116.21 20.387 116.39C20.347 116.43 20.287 116.44 20.207 116.42C20.147 116.38 20.127 116.33 20.147 116.27C20.207 116.13 20.247 115.97 20.267 115.79C20.287 115.61 20.277 115.45 20.237 115.31C20.137 114.91 19.857 114.71 19.397 114.71C19.057 114.71 18.777 114.81 18.557 115.01C18.357 115.21 18.257 115.51 18.257 115.91C18.257 116.23 18.337 116.54 18.497 116.84C18.677 117.12 18.867 117.41 19.067 117.71C19.287 117.99 19.477 118.3 19.637 118.64C19.817 118.96 19.907 119.32 19.907 119.72C19.907 120.36 19.677 120.9 19.217 121.34C18.777 121.78 18.107 122 17.207 122C16.587 122 16.077 121.89 15.677 121.67C15.277 121.45 15.077 121.22 15.077 120.98C15.077 120.8 15.187 120.53 15.407 120.17C15.627 119.81 15.877 119.52 16.157 119.3C16.217 119.26 16.267 119.27 16.307 119.33C16.367 119.39 16.377 119.45 16.337 119.51C16.177 119.67 16.057 119.86 15.977 120.08C15.897 120.28 15.877 120.46 15.917 120.62C15.977 120.96 16.127 121.22 16.367 121.4C16.627 121.56 16.927 121.64 17.267 121.64C17.787 121.64 18.187 121.5 18.467 121.22C18.767 120.94 18.917 120.58 18.917 120.14C18.917 119.76 18.827 119.41 18.647 119.09C18.467 118.75 18.267 118.43 18.047 118.13C17.847 117.81 17.657 117.5 17.477 117.2C17.317 116.88 17.237 116.54 17.237 116.18C17.237 115.66 17.427 115.22 17.807 114.86C18.207 114.5 18.737 114.32 19.397 114.32ZM27.8112 121.73C28.7112 118.29 29.7212 115.19 30.8412 112.43C31.9612 109.67 33.1312 107.32 34.3512 105.38C35.5912 103.44 36.8512 101.95 38.1312 100.91C39.4112 99.85 40.6512 99.32 41.8512 99.32C42.2912 99.32 42.6512 99.41 42.9312 99.59C43.2312 99.75 43.4312 99.96 43.5312 100.22C43.6512 100.48 43.6812 100.77 43.6212 101.09C43.5812 101.41 43.4412 101.72 43.2012 102.02C43.1612 102.08 43.1112 102.1 43.0512 102.08C42.9912 102.06 42.9612 102.01 42.9612 101.93C43.0412 101.53 42.9212 101.15 42.6012 100.79C42.2812 100.43 41.7712 100.25 41.0712 100.25C40.1312 100.25 39.1712 100.62 38.1912 101.36C37.2112 102.1 36.2312 103.24 35.2512 104.78C34.2712 106.3 33.3012 108.22 32.3412 110.54C31.4012 112.86 30.4912 115.61 29.6112 118.79C29.9312 118.17 30.3012 117.59 30.7212 117.05C31.1412 116.49 31.5712 116.01 32.0112 115.61C32.4512 115.21 32.8912 114.9 33.3312 114.68C33.7912 114.44 34.2312 114.32 34.6512 114.32C34.8912 114.32 35.0712 114.38 35.1912 114.5C35.3112 114.62 35.3712 114.76 35.3712 114.92C35.3712 115.18 35.2812 115.47 35.1012 115.79C34.6812 116.53 34.3312 117.29 34.0512 118.07C33.7912 118.85 33.6612 119.56 33.6612 120.2C33.6612 120.48 33.6912 120.71 33.7512 120.89C33.8312 121.07 33.9512 121.16 34.1112 121.16C34.3112 121.16 34.5212 121.06 34.7412 120.86C34.9812 120.64 35.1912 120.4 35.3712 120.14C35.4312 120.1 35.4912 120.11 35.5512 120.17C35.6112 120.21 35.6312 120.27 35.6112 120.35C35.4912 120.53 35.3412 120.72 35.1612 120.92C34.9812 121.1 34.7812 121.28 34.5612 121.46C34.3612 121.62 34.1512 121.75 33.9312 121.85C33.7112 121.95 33.5112 122 33.3312 122C32.8312 122 32.5812 121.58 32.5812 120.74C32.5812 120.02 32.7012 119.24 32.9412 118.4C33.1812 117.54 33.4712 116.78 33.8112 116.12C33.9312 115.92 33.9912 115.75 33.9912 115.61C33.9912 115.43 33.8812 115.34 33.6612 115.34C33.3012 115.34 32.9112 115.48 32.4912 115.76C32.0712 116.04 31.6412 116.45 31.2012 116.99C30.7612 117.53 30.3412 118.19 29.9412 118.97C29.5412 119.73 29.1812 120.59 28.8612 121.55C28.8212 121.69 28.7112 121.8 28.5312 121.88C28.3712 121.96 28.2112 122 28.0512 122C27.8312 122 27.7512 121.91 27.8112 121.73ZM50.041 120.11C50.081 120.07 50.131 120.07 50.191 120.11C50.251 120.15 50.271 120.21 50.251 120.29C49.831 120.87 49.411 121.3 48.991 121.58C48.591 121.86 48.251 122 47.971 122C47.791 122 47.641 121.91 47.521 121.73C47.421 121.55 47.351 121.31 47.311 121.01C47.291 120.69 47.301 120.34 47.341 119.96C47.401 119.56 47.491 119.15 47.611 118.73C47.071 119.57 46.501 120.3 45.901 120.92C45.301 121.52 44.721 121.88 44.161 122C43.801 122 43.491 121.83 43.231 121.49C42.991 121.13 42.871 120.58 42.871 119.84C42.871 119.18 43.001 118.53 43.261 117.89C43.541 117.23 43.911 116.64 44.371 116.12C44.831 115.58 45.361 115.15 45.961 114.83C46.561 114.51 47.191 114.35 47.851 114.35C48.211 114.35 48.521 114.39 48.781 114.47C49.041 114.55 49.281 114.67 49.501 114.83C49.621 114.73 49.781 114.64 49.981 114.56C50.201 114.46 50.401 114.41 50.581 114.41C50.681 114.41 50.711 114.46 50.671 114.56C50.211 115.12 49.811 115.74 49.471 116.42C49.151 117.1 48.901 117.76 48.721 118.4C48.541 119.04 48.421 119.61 48.361 120.11C48.321 120.59 48.361 120.92 48.481 121.1C48.581 121.24 48.761 121.25 49.021 121.13C49.281 120.99 49.621 120.65 50.041 120.11ZM44.821 120.98C45.041 120.98 45.321 120.83 45.661 120.53C46.021 120.21 46.391 119.8 46.771 119.3C47.151 118.8 47.521 118.24 47.881 117.62C48.261 116.98 48.591 116.34 48.871 115.7C48.791 115.44 48.601 115.23 48.301 115.07C48.021 114.91 47.691 114.83 47.311 114.83C46.871 114.83 46.451 114.95 46.051 115.19C45.671 115.41 45.331 115.73 45.031 116.15C44.731 116.55 44.491 117.03 44.311 117.59C44.131 118.15 44.041 118.77 44.041 119.45C44.041 119.89 44.111 120.26 44.251 120.56C44.411 120.84 44.601 120.98 44.821 120.98ZM58.6794 117.2C58.9394 117.18 59.2694 117.15 59.6694 117.11C60.0894 117.07 60.5294 117.04 60.9894 117.02C61.4494 116.98 61.8994 116.95 62.3394 116.93C62.7994 116.91 63.1994 116.9 63.5394 116.9C63.6194 116.92 63.6494 116.97 63.6294 117.05C63.6094 117.13 63.5594 117.22 63.4794 117.32C63.4194 117.4 63.3294 117.48 63.2094 117.56C63.0894 117.64 62.9594 117.69 62.8194 117.71C62.4594 117.71 62.0594 117.72 61.6194 117.74C61.1794 117.74 60.7394 117.75 60.2994 117.77C59.8794 117.79 59.4694 117.81 59.0694 117.83C58.6694 117.83 58.3394 117.84 58.0794 117.86C57.9394 117.82 57.9394 117.72 58.0794 117.56C58.2194 117.38 58.4194 117.26 58.6794 117.2ZM74.5829 114.32C74.9829 114.32 75.3129 114.39 75.5729 114.53C75.8529 114.65 75.9929 114.79 75.9929 114.95C75.9929 115.17 75.9429 115.42 75.8429 115.7C75.7629 115.98 75.6729 116.21 75.5729 116.39C75.5329 116.43 75.4729 116.44 75.3929 116.42C75.3329 116.38 75.3129 116.33 75.3329 116.27C75.3929 116.13 75.4329 115.97 75.4529 115.79C75.4729 115.61 75.4629 115.45 75.4229 115.31C75.3229 114.91 75.0429 114.71 74.5829 114.71C74.2429 114.71 73.9629 114.81 73.7429 115.01C73.5429 115.21 73.4429 115.51 73.4429 115.91C73.4429 116.23 73.5229 116.54 73.6829 116.84C73.8629 117.12 74.0529 117.41 74.2529 117.71C74.4729 117.99 74.6629 118.3 74.8229 118.64C75.0029 118.96 75.0929 119.32 75.0929 119.72C75.0929 120.36 74.8629 120.9 74.4029 121.34C73.9629 121.78 73.2929 122 72.3929 122C71.7729 122 71.2629 121.89 70.8629 121.67C70.4629 121.45 70.2629 121.22 70.2629 120.98C70.2629 120.8 70.3729 120.53 70.5929 120.17C70.8129 119.81 71.0629 119.52 71.3429 119.3C71.4029 119.26 71.4529 119.27 71.4929 119.33C71.5529 119.39 71.5629 119.45 71.5229 119.51C71.3629 119.67 71.2429 119.86 71.1629 120.08C71.0829 120.28 71.0629 120.46 71.1029 120.62C71.1629 120.96 71.3129 121.22 71.5529 121.4C71.8129 121.56 72.1129 121.64 72.4529 121.64C72.9729 121.64 73.3729 121.5 73.6529 121.22C73.9529 120.94 74.1029 120.58 74.1029 120.14C74.1029 119.76 74.0129 119.41 73.8329 119.09C73.6529 118.75 73.4529 118.43 73.2329 118.13C73.0329 117.81 72.8429 117.5 72.6629 117.2C72.5029 116.88 72.4229 116.54 72.4229 116.18C72.4229 115.66 72.6129 115.22 72.9929 114.86C73.3929 114.5 73.9229 114.32 74.5829 114.32ZM83.7772 116.42C83.7172 116.46 83.6572 116.45 83.5972 116.39C83.5572 116.31 83.5572 116.24 83.5972 116.18C83.8772 115.9 84.2572 115.58 84.7372 115.22C85.2172 114.86 85.6972 114.56 86.1772 114.32C86.3372 114.32 86.4172 114.41 86.4172 114.59C86.1572 115.05 85.8972 115.55 85.6372 116.09C85.3972 116.63 85.1772 117.17 84.9772 117.71C84.7972 118.23 84.6472 118.74 84.5272 119.24C84.4072 119.72 84.3472 120.12 84.3472 120.44C84.3472 120.86 84.4872 121.07 84.7672 121.07C84.9872 121.07 85.1972 120.98 85.3972 120.8C85.6172 120.6 85.8672 120.34 86.1472 120.02C86.1872 119.98 86.2372 119.99 86.2972 120.05C86.3572 120.11 86.3672 120.18 86.3272 120.26C85.9672 120.7 85.5772 121.1 85.1572 121.46C84.7572 121.82 84.3772 122 84.0172 122C83.4972 122 83.2372 121.67 83.2372 121.01C83.2372 120.63 83.2972 120.18 83.4172 119.66C83.5572 119.12 83.7272 118.58 83.9272 118.04C84.1272 117.5 84.3472 116.98 84.5872 116.48C84.8472 115.98 85.0972 115.55 85.3372 115.19C85.1172 115.35 84.8372 115.56 84.4972 115.82C84.1772 116.06 83.9372 116.26 83.7772 116.42ZM86.4772 113.03C86.4172 113.09 86.3572 113.1 86.2972 113.06C86.2572 113 86.2272 112.93 86.2072 112.85C86.1872 112.75 86.1772 112.64 86.1772 112.52C86.1772 112.4 86.2072 112.3 86.2672 112.22C86.7872 111.5 87.5172 110.73 88.4572 109.91C88.5172 109.89 88.5772 109.91 88.6372 109.97C88.6972 110.01 88.7072 110.05 88.6672 110.09C88.2472 110.47 87.8472 110.93 87.4672 111.47C87.0872 111.99 86.7572 112.51 86.4772 113.03ZM101.31 120.08C101.37 120.04 101.43 120.04 101.49 120.08C101.55 120.12 101.57 120.18 101.55 120.26C101.21 120.72 100.83 121.13 100.41 121.49C100.01 121.83 99.6296 122 99.2696 122C98.6496 122 98.3396 121.6 98.3396 120.8C98.3396 120.12 98.4596 119.37 98.6996 118.55C98.9396 117.71 99.2696 116.87 99.6896 116.03C99.7696 115.89 99.8096 115.75 99.8096 115.61C99.8096 115.39 99.7096 115.28 99.5096 115.28C98.7696 115.28 97.9496 115.79 97.0496 116.81C96.1696 117.83 95.3496 119.43 94.5896 121.61C94.5496 121.73 94.4396 121.83 94.2596 121.91C94.0796 121.97 93.9096 122 93.7496 122C93.5296 122 93.4496 121.91 93.5096 121.73C93.8496 120.87 94.1996 119.9 94.5596 118.82C94.9396 117.74 95.2696 116.67 95.5496 115.61C95.6296 115.23 95.5596 115.04 95.3396 115.04C95.1396 115.04 94.9396 115.14 94.7396 115.34C94.5396 115.54 94.3296 115.8 94.1096 116.12C94.0696 116.16 94.0196 116.15 93.9596 116.09C93.9196 116.03 93.9096 115.97 93.9296 115.91C94.1496 115.57 94.4496 115.22 94.8296 114.86C95.2096 114.5 95.6196 114.32 96.0596 114.32C96.5596 114.32 96.7296 114.66 96.5696 115.34C96.4896 115.78 96.3796 116.25 96.2396 116.75C96.0996 117.23 95.9496 117.71 95.7896 118.19C96.0696 117.65 96.3996 117.14 96.7796 116.66C97.1596 116.18 97.5496 115.77 97.9496 115.43C98.3696 115.09 98.7796 114.82 99.1796 114.62C99.5996 114.42 99.9896 114.32 100.35 114.32C100.59 114.32 100.77 114.38 100.89 114.5C101.03 114.62 101.1 114.76 101.1 114.92C101.1 115.18 101.04 115.44 100.92 115.7C100.5 116.46 100.14 117.26 99.8396 118.1C99.5596 118.92 99.4196 119.68 99.4196 120.38C99.4196 120.88 99.5796 121.13 99.8996 121.13C100.32 121.13 100.79 120.78 101.31 120.08ZM113.07 116.75C112.97 116.75 112.92 116.7 112.92 116.6C113.08 116.2 113.08 115.85 112.92 115.55C112.78 115.25 112.48 115.1 112.02 115.1C111.7 115.1 111.4 115.22 111.12 115.46C110.84 115.68 110.6 116 110.4 116.42C110.2 116.82 110.04 117.3 109.92 117.86C109.8 118.4 109.74 118.99 109.74 119.63C109.74 120.61 110.08 121.1 110.76 121.1C111.54 121.1 112.32 120.63 113.1 119.69C113.18 119.65 113.25 119.66 113.31 119.72C113.37 119.76 113.38 119.83 113.34 119.93C112.88 120.51 112.37 121.01 111.81 121.43C111.25 121.83 110.7 122.03 110.16 122.03C109.72 122.03 109.35 121.87 109.05 121.55C108.77 121.23 108.63 120.79 108.63 120.23C108.63 119.53 108.74 118.83 108.96 118.13C109.2 117.43 109.5 116.8 109.86 116.24C110.24 115.68 110.67 115.23 111.15 114.89C111.63 114.53 112.12 114.35 112.62 114.35C113.04 114.35 113.37 114.45 113.61 114.65C113.85 114.85 113.97 115.09 113.97 115.37C113.97 115.47 113.94 115.59 113.88 115.73C113.82 115.87 113.74 116.01 113.64 116.15C113.56 116.29 113.46 116.42 113.34 116.54C113.24 116.64 113.15 116.71 113.07 116.75ZM126.154 115.64C126.154 115.92 126.044 116.18 125.824 116.42C125.604 116.66 125.304 116.88 124.924 117.08C124.544 117.26 124.104 117.43 123.604 117.59C123.124 117.75 122.614 117.9 122.074 118.04C122.054 118.26 122.034 118.48 122.014 118.7C122.014 118.92 122.014 119.16 122.014 119.42C122.014 119.92 122.124 120.34 122.344 120.68C122.564 121.02 122.874 121.19 123.274 121.19C123.674 121.19 124.044 121.09 124.384 120.89C124.744 120.69 125.064 120.42 125.344 120.08C125.424 120.04 125.484 120.05 125.524 120.11C125.564 120.17 125.564 120.24 125.524 120.32C125.184 120.78 124.754 121.18 124.234 121.52C123.734 121.84 123.204 122 122.644 122C122.124 122 121.694 121.83 121.354 121.49C121.034 121.15 120.874 120.65 120.874 119.99C120.874 119.39 120.984 118.76 121.204 118.1C121.424 117.42 121.714 116.8 122.074 116.24C122.434 115.68 122.844 115.22 123.304 114.86C123.784 114.5 124.284 114.32 124.804 114.32C125.184 114.32 125.504 114.46 125.764 114.74C126.024 115 126.154 115.3 126.154 115.64ZM124.174 115.1C123.714 115.1 123.304 115.3 122.944 115.7C122.584 116.1 122.324 116.73 122.164 117.59C123.124 117.45 123.824 117.25 124.264 116.99C124.724 116.71 124.954 116.4 124.954 116.06C124.954 115.78 124.884 115.55 124.744 115.37C124.604 115.19 124.414 115.1 124.174 115.1ZM133.835 122.21C133.615 122.21 133.505 122.12 133.505 121.94C133.745 121.3 134.005 120.64 134.285 119.96C134.585 119.28 134.885 118.6 135.185 117.92C135.485 117.24 135.785 116.58 136.085 115.94C136.385 115.3 136.665 114.7 136.925 114.14C136.465 114.26 136.025 114.37 135.605 114.47C135.185 114.57 134.805 114.62 134.465 114.62C134.385 114.6 134.355 114.54 134.375 114.44C134.395 114.34 134.465 114.27 134.585 114.23C135.345 114.13 136.095 113.91 136.835 113.57C137.595 113.21 138.295 112.75 138.935 112.19C139.035 112.15 139.125 112.15 139.205 112.19C139.285 112.23 139.315 112.3 139.295 112.4C138.795 113.06 138.325 113.79 137.885 114.59C137.445 115.37 137.035 116.17 136.655 116.99C136.295 117.79 135.975 118.59 135.695 119.39C135.435 120.19 135.215 120.94 135.035 121.64C134.895 121.82 134.715 121.96 134.495 122.06C134.275 122.16 134.055 122.21 133.835 122.21ZM144.649 126.53C144.129 126.53 143.709 126.4 143.389 126.14C143.069 125.88 142.879 125.53 142.819 125.09C142.839 125.03 142.879 124.98 142.939 124.94C142.999 124.9 143.059 124.9 143.119 124.94C143.319 125.2 143.579 125.39 143.899 125.51C144.219 125.65 144.639 125.72 145.159 125.72C146.579 125.72 147.769 125.24 148.729 124.28C149.709 123.32 150.519 121.68 151.159 119.36C150.759 119.96 150.299 120.45 149.779 120.83C149.259 121.19 148.629 121.37 147.889 121.37C147.089 121.37 146.489 121.12 146.089 120.62C145.689 120.12 145.489 119.5 145.489 118.76C145.489 118.08 145.609 117.38 145.849 116.66C146.109 115.94 146.459 115.28 146.899 114.68C147.359 114.08 147.899 113.59 148.519 113.21C149.139 112.81 149.819 112.61 150.559 112.61C151.299 112.61 151.899 112.86 152.359 113.36C152.839 113.86 153.079 114.49 153.079 115.25C153.079 116.71 152.839 118.12 152.359 119.48C151.879 120.82 151.249 122.01 150.469 123.05C149.689 124.11 148.789 124.95 147.769 125.57C146.769 126.21 145.729 126.53 144.649 126.53ZM148.699 120.47C149.099 120.47 149.489 120.34 149.869 120.08C150.249 119.82 150.579 119.48 150.859 119.06C151.159 118.64 151.389 118.17 151.549 117.65C151.729 117.11 151.819 116.56 151.819 116C151.819 115.26 151.649 114.65 151.309 114.17C150.989 113.69 150.449 113.45 149.689 113.45C148.789 113.45 148.059 113.88 147.499 114.74C146.959 115.6 146.689 116.73 146.689 118.13C146.689 118.89 146.849 119.47 147.169 119.87C147.489 120.27 147.999 120.47 148.699 120.47ZM159.91 126.53C159.39 126.53 158.97 126.4 158.65 126.14C158.33 125.88 158.14 125.53 158.08 125.09C158.1 125.03 158.14 124.98 158.2 124.94C158.26 124.9 158.32 124.9 158.38 124.94C158.58 125.2 158.84 125.39 159.16 125.51C159.48 125.65 159.9 125.72 160.42 125.72C161.84 125.72 163.03 125.24 163.99 124.28C164.97 123.32 165.78 121.68 166.42 119.36C166.02 119.96 165.56 120.45 165.04 120.83C164.52 121.19 163.89 121.37 163.15 121.37C162.35 121.37 161.75 121.12 161.35 120.62C160.95 120.12 160.75 119.5 160.75 118.76C160.75 118.08 160.87 117.38 161.11 116.66C161.37 115.94 161.72 115.28 162.16 114.68C162.62 114.08 163.16 113.59 163.78 113.21C164.4 112.81 165.08 112.61 165.82 112.61C166.56 112.61 167.16 112.86 167.62 113.36C168.1 113.86 168.34 114.49 168.34 115.25C168.34 116.71 168.1 118.12 167.62 119.48C167.14 120.82 166.51 122.01 165.73 123.05C164.95 124.11 164.05 124.95 163.03 125.57C162.03 126.21 160.99 126.53 159.91 126.53ZM163.96 120.47C164.36 120.47 164.75 120.34 165.13 120.08C165.51 119.82 165.84 119.48 166.12 119.06C166.42 118.64 166.65 118.17 166.81 117.65C166.99 117.11 167.08 116.56 167.08 116C167.08 115.26 166.91 114.65 166.57 114.17C166.25 113.69 165.71 113.45 164.95 113.45C164.05 113.45 163.32 113.88 162.76 114.74C162.22 115.6 161.95 116.73 161.95 118.13C161.95 118.89 162.11 119.47 162.43 119.87C162.75 120.27 163.26 120.47 163.96 120.47ZM175.172 126.53C174.652 126.53 174.232 126.4 173.912 126.14C173.592 125.88 173.402 125.53 173.342 125.09C173.362 125.03 173.402 124.98 173.462 124.94C173.522 124.9 173.582 124.9 173.642 124.94C173.842 125.2 174.102 125.39 174.422 125.51C174.742 125.65 175.162 125.72 175.682 125.72C177.102 125.72 178.292 125.24 179.252 124.28C180.232 123.32 181.042 121.68 181.682 119.36C181.282 119.96 180.822 120.45 180.302 120.83C179.782 121.19 179.152 121.37 178.412 121.37C177.612 121.37 177.012 121.12 176.612 120.62C176.212 120.12 176.012 119.5 176.012 118.76C176.012 118.08 176.132 117.38 176.372 116.66C176.632 115.94 176.982 115.28 177.422 114.68C177.882 114.08 178.422 113.59 179.042 113.21C179.662 112.81 180.342 112.61 181.082 112.61C181.822 112.61 182.422 112.86 182.882 113.36C183.362 113.86 183.602 114.49 183.602 115.25C183.602 116.71 183.362 118.12 182.882 119.48C182.402 120.82 181.772 122.01 180.992 123.05C180.212 124.11 179.312 124.95 178.292 125.57C177.292 126.21 176.252 126.53 175.172 126.53ZM179.222 120.47C179.622 120.47 180.012 120.34 180.392 120.08C180.772 119.82 181.102 119.48 181.382 119.06C181.682 118.64 181.912 118.17 182.072 117.65C182.252 117.11 182.342 116.56 182.342 116C182.342 115.26 182.172 114.65 181.832 114.17C181.512 113.69 180.972 113.45 180.212 113.45C179.312 113.45 178.582 113.88 178.022 114.74C177.482 115.6 177.212 116.73 177.212 118.13C177.212 118.89 177.372 119.47 177.692 119.87C178.012 120.27 178.522 120.47 179.222 120.47Z" fill="#E7EEF5"/>
<path d="M19.397 114.32C19.797 114.32 20.127 114.39 20.387 114.53C20.667 114.65 20.807 114.79 20.807 114.95C20.807 115.17 20.757 115.42 20.657 115.7C20.577 115.98 20.487 116.21 20.387 116.39C20.347 116.43 20.287 116.44 20.207 116.42C20.147 116.38 20.127 116.33 20.147 116.27C20.207 116.13 20.247 115.97 20.267 115.79C20.287 115.61 20.277 115.45 20.237 115.31C20.137 114.91 19.857 114.71 19.397 114.71C19.057 114.71 18.777 114.81 18.557 115.01C18.357 115.21 18.257 115.51 18.257 115.91C18.257 116.23 18.337 116.54 18.497 116.84C18.677 117.12 18.867 117.41 19.067 117.71C19.287 117.99 19.477 118.3 19.637 118.64C19.817 118.96 19.907 119.32 19.907 119.72C19.907 120.36 19.677 120.9 19.217 121.34C18.777 121.78 18.107 122 17.207 122C16.587 122 16.077 121.89 15.677 121.67C15.277 121.45 15.077 121.22 15.077 120.98C15.077 120.8 15.187 120.53 15.407 120.17C15.627 119.81 15.877 119.52 16.157 119.3C16.217 119.26 16.267 119.27 16.307 119.33C16.367 119.39 16.377 119.45 16.337 119.51C16.177 119.67 16.057 119.86 15.977 120.08C15.897 120.28 15.877 120.46 15.917 120.62C15.977 120.96 16.127 121.22 16.367 121.4C16.627 121.56 16.927 121.64 17.267 121.64C17.787 121.64 18.187 121.5 18.467 121.22C18.767 120.94 18.917 120.58 18.917 120.14C18.917 119.76 18.827 119.41 18.647 119.09C18.467 118.75 18.267 118.43 18.047 118.13C17.847 117.81 17.657 117.5 17.477 117.2C17.317 116.88 17.237 116.54 17.237 116.18C17.237 115.66 17.427 115.22 17.807 114.86C18.207 114.5 18.737 114.32 19.397 114.32ZM27.8112 121.73C28.7112 118.29 29.7212 115.19 30.8412 112.43C31.9612 109.67 33.1312 107.32 34.3512 105.38C35.5912 103.44 36.8512 101.95 38.1312 100.91C39.4112 99.85 40.6512 99.32 41.8512 99.32C42.2912 99.32 42.6512 99.41 42.9312 99.59C43.2312 99.75 43.4312 99.96 43.5312 100.22C43.6512 100.48 43.6812 100.77 43.6212 101.09C43.5812 101.41 43.4412 101.72 43.2012 102.02C43.1612 102.08 43.1112 102.1 43.0512 102.08C42.9912 102.06 42.9612 102.01 42.9612 101.93C43.0412 101.53 42.9212 101.15 42.6012 100.79C42.2812 100.43 41.7712 100.25 41.0712 100.25C40.1312 100.25 39.1712 100.62 38.1912 101.36C37.2112 102.1 36.2312 103.24 35.2512 104.78C34.2712 106.3 33.3012 108.22 32.3412 110.54C31.4012 112.86 30.4912 115.61 29.6112 118.79C29.9312 118.17 30.3012 117.59 30.7212 117.05C31.1412 116.49 31.5712 116.01 32.0112 115.61C32.4512 115.21 32.8912 114.9 33.3312 114.68C33.7912 114.44 34.2312 114.32 34.6512 114.32C34.8912 114.32 35.0712 114.38 35.1912 114.5C35.3112 114.62 35.3712 114.76 35.3712 114.92C35.3712 115.18 35.2812 115.47 35.1012 115.79C34.6812 116.53 34.3312 117.29 34.0512 118.07C33.7912 118.85 33.6612 119.56 33.6612 120.2C33.6612 120.48 33.6912 120.71 33.7512 120.89C33.8312 121.07 33.9512 121.16 34.1112 121.16C34.3112 121.16 34.5212 121.06 34.7412 120.86C34.9812 120.64 35.1912 120.4 35.3712 120.14C35.4312 120.1 35.4912 120.11 35.5512 120.17C35.6112 120.21 35.6312 120.27 35.6112 120.35C35.4912 120.53 35.3412 120.72 35.1612 120.92C34.9812 121.1 34.7812 121.28 34.5612 121.46C34.3612 121.62 34.1512 121.75 33.9312 121.85C33.7112 121.95 33.5112 122 33.3312 122C32.8312 122 32.5812 121.58 32.5812 120.74C32.5812 120.02 32.7012 119.24 32.9412 118.4C33.1812 117.54 33.4712 116.78 33.8112 116.12C33.9312 115.92 33.9912 115.75 33.9912 115.61C33.9912 115.43 33.8812 115.34 33.6612 115.34C33.3012 115.34 32.9112 115.48 32.4912 115.76C32.0712 116.04 31.6412 116.45 31.2012 116.99C30.7612 117.53 30.3412 118.19 29.9412 118.97C29.5412 119.73 29.1812 120.59 28.8612 121.55C28.8212 121.69 28.7112 121.8 28.5312 121.88C28.3712 121.96 28.2112 122 28.0512 122C27.8312 122 27.7512 121.91 27.8112 121.73ZM50.041 120.11C50.081 120.07 50.131 120.07 50.191 120.11C50.251 120.15 50.271 120.21 50.251 120.29C49.831 120.87 49.411 121.3 48.991 121.58C48.591 121.86 48.251 122 47.971 122C47.791 122 47.641 121.91 47.521 121.73C47.421 121.55 47.351 121.31 47.311 121.01C47.291 120.69 47.301 120.34 47.341 119.96C47.401 119.56 47.491 119.15 47.611 118.73C47.071 119.57 46.501 120.3 45.901 120.92C45.301 121.52 44.721 121.88 44.161 122C43.801 122 43.491 121.83 43.231 121.49C42.991 121.13 42.871 120.58 42.871 119.84C42.871 119.18 43.001 118.53 43.261 117.89C43.541 117.23 43.911 116.64 44.371 116.12C44.831 115.58 45.361 115.15 45.961 114.83C46.561 114.51 47.191 114.35 47.851 114.35C48.211 114.35 48.521 114.39 48.781 114.47C49.041 114.55 49.281 114.67 49.501 114.83C49.621 114.73 49.781 114.64 49.981 114.56C50.201 114.46 50.401 114.41 50.581 114.41C50.681 114.41 50.711 114.46 50.671 114.56C50.211 115.12 49.811 115.74 49.471 116.42C49.151 117.1 48.901 117.76 48.721 118.4C48.541 119.04 48.421 119.61 48.361 120.11C48.321 120.59 48.361 120.92 48.481 121.1C48.581 121.24 48.761 121.25 49.021 121.13C49.281 120.99 49.621 120.65 50.041 120.11ZM44.821 120.98C45.041 120.98 45.321 120.83 45.661 120.53C46.021 120.21 46.391 119.8 46.771 119.3C47.151 118.8 47.521 118.24 47.881 117.62C48.261 116.98 48.591 116.34 48.871 115.7C48.791 115.44 48.601 115.23 48.301 115.07C48.021 114.91 47.691 114.83 47.311 114.83C46.871 114.83 46.451 114.95 46.051 115.19C45.671 115.41 45.331 115.73 45.031 116.15C44.731 116.55 44.491 117.03 44.311 117.59C44.131 118.15 44.041 118.77 44.041 119.45C44.041 119.89 44.111 120.26 44.251 120.56C44.411 120.84 44.601 120.98 44.821 120.98ZM58.6794 117.2C58.9394 117.18 59.2694 117.15 59.6694 117.11C60.0894 117.07 60.5294 117.04 60.9894 117.02C61.4494 116.98 61.8994 116.95 62.3394 116.93C62.7994 116.91 63.1994 116.9 63.5394 116.9C63.6194 116.92 63.6494 116.97 63.6294 117.05C63.6094 117.13 63.5594 117.22 63.4794 117.32C63.4194 117.4 63.3294 117.48 63.2094 117.56C63.0894 117.64 62.9594 117.69 62.8194 117.71C62.4594 117.71 62.0594 117.72 61.6194 117.74C61.1794 117.74 60.7394 117.75 60.2994 117.77C59.8794 117.79 59.4694 117.81 59.0694 117.83C58.6694 117.83 58.3394 117.84 58.0794 117.86C57.9394 117.82 57.9394 117.72 58.0794 117.56C58.2194 117.38 58.4194 117.26 58.6794 117.2ZM74.5829 114.32C74.9829 114.32 75.3129 114.39 75.5729 114.53C75.8529 114.65 75.9929 114.79 75.9929 114.95C75.9929 115.17 75.9429 115.42 75.8429 115.7C75.7629 115.98 75.6729 116.21 75.5729 116.39C75.5329 116.43 75.4729 116.44 75.3929 116.42C75.3329 116.38 75.3129 116.33 75.3329 116.27C75.3929 116.13 75.4329 115.97 75.4529 115.79C75.4729 115.61 75.4629 115.45 75.4229 115.31C75.3229 114.91 75.0429 114.71 74.5829 114.71C74.2429 114.71 73.9629 114.81 73.7429 115.01C73.5429 115.21 73.4429 115.51 73.4429 115.91C73.4429 116.23 73.5229 116.54 73.6829 116.84C73.8629 117.12 74.0529 117.41 74.2529 117.71C74.4729 117.99 74.6629 118.3 74.8229 118.64C75.0029 118.96 75.0929 119.32 75.0929 119.72C75.0929 120.36 74.8629 120.9 74.4029 121.34C73.9629 121.78 73.2929 122 72.3929 122C71.7729 122 71.2629 121.89 70.8629 121.67C70.4629 121.45 70.2629 121.22 70.2629 120.98C70.2629 120.8 70.3729 120.53 70.5929 120.17C70.8129 119.81 71.0629 119.52 71.3429 119.3C71.4029 119.26 71.4529 119.27 71.4929 119.33C71.5529 119.39 71.5629 119.45 71.5229 119.51C71.3629 119.67 71.2429 119.86 71.1629 120.08C71.0829 120.28 71.0629 120.46 71.1029 120.62C71.1629 120.96 71.3129 121.22 71.5529 121.4C71.8129 121.56 72.1129 121.64 72.4529 121.64C72.9729 121.64 73.3729 121.5 73.6529 121.22C73.9529 120.94 74.1029 120.58 74.1029 120.14C74.1029 119.76 74.0129 119.41 73.8329 119.09C73.6529 118.75 73.4529 118.43 73.2329 118.13C73.0329 117.81 72.8429 117.5 72.6629 117.2C72.5029 116.88 72.4229 116.54 72.4229 116.18C72.4229 115.66 72.6129 115.22 72.9929 114.86C73.3929 114.5 73.9229 114.32 74.5829 114.32ZM83.7772 116.42C83.7172 116.46 83.6572 116.45 83.5972 116.39C83.5572 116.31 83.5572 116.24 83.5972 116.18C83.8772 115.9 84.2572 115.58 84.7372 115.22C85.2172 114.86 85.6972 114.56 86.1772 114.32C86.3372 114.32 86.4172 114.41 86.4172 114.59C86.1572 115.05 85.8972 115.55 85.6372 116.09C85.3972 116.63 85.1772 117.17 84.9772 117.71C84.7972 118.23 84.6472 118.74 84.5272 119.24C84.4072 119.72 84.3472 120.12 84.3472 120.44C84.3472 120.86 84.4872 121.07 84.7672 121.07C84.9872 121.07 85.1972 120.98 85.3972 120.8C85.6172 120.6 85.8672 120.34 86.1472 120.02C86.1872 119.98 86.2372 119.99 86.2972 120.05C86.3572 120.11 86.3672 120.18 86.3272 120.26C85.9672 120.7 85.5772 121.1 85.1572 121.46C84.7572 121.82 84.3772 122 84.0172 122C83.4972 122 83.2372 121.67 83.2372 121.01C83.2372 120.63 83.2972 120.18 83.4172 119.66C83.5572 119.12 83.7272 118.58 83.9272 118.04C84.1272 117.5 84.3472 116.98 84.5872 116.48C84.8472 115.98 85.0972 115.55 85.3372 115.19C85.1172 115.35 84.8372 115.56 84.4972 115.82C84.1772 116.06 83.9372 116.26 83.7772 116.42ZM86.4772 113.03C86.4172 113.09 86.3572 113.1 86.2972 113.06C86.2572 113 86.2272 112.93 86.2072 112.85C86.1872 112.75 86.1772 112.64 86.1772 112.52C86.1772 112.4 86.2072 112.3 86.2672 112.22C86.7872 111.5 87.5172 110.73 88.4572 109.91C88.5172 109.89 88.5772 109.91 88.6372 109.97C88.6972 110.01 88.7072 110.05 88.6672 110.09C88.2472 110.47 87.8472 110.93 87.4672 111.47C87.0872 111.99 86.7572 112.51 86.4772 113.03ZM101.31 120.08C101.37 120.04 101.43 120.04 101.49 120.08C101.55 120.12 101.57 120.18 101.55 120.26C101.21 120.72 100.83 121.13 100.41 121.49C100.01 121.83 99.6296 122 99.2696 122C98.6496 122 98.3396 121.6 98.3396 120.8C98.3396 120.12 98.4596 119.37 98.6996 118.55C98.9396 117.71 99.2696 116.87 99.6896 116.03C99.7696 115.89 99.8096 115.75 99.8096 115.61C99.8096 115.39 99.7096 115.28 99.5096 115.28C98.7696 115.28 97.9496 115.79 97.0496 116.81C96.1696 117.83 95.3496 119.43 94.5896 121.61C94.5496 121.73 94.4396 121.83 94.2596 121.91C94.0796 121.97 93.9096 122 93.7496 122C93.5296 122 93.4496 121.91 93.5096 121.73C93.8496 120.87 94.1996 119.9 94.5596 118.82C94.9396 117.74 95.2696 116.67 95.5496 115.61C95.6296 115.23 95.5596 115.04 95.3396 115.04C95.1396 115.04 94.9396 115.14 94.7396 115.34C94.5396 115.54 94.3296 115.8 94.1096 116.12C94.0696 116.16 94.0196 116.15 93.9596 116.09C93.9196 116.03 93.9096 115.97 93.9296 115.91C94.1496 115.57 94.4496 115.22 94.8296 114.86C95.2096 114.5 95.6196 114.32 96.0596 114.32C96.5596 114.32 96.7296 114.66 96.5696 115.34C96.4896 115.78 96.3796 116.25 96.2396 116.75C96.0996 117.23 95.9496 117.71 95.7896 118.19C96.0696 117.65 96.3996 117.14 96.7796 116.66C97.1596 116.18 97.5496 115.77 97.9496 115.43C98.3696 115.09 98.7796 114.82 99.1796 114.62C99.5996 114.42 99.9896 114.32 100.35 114.32C100.59 114.32 100.77 114.38 100.89 114.5C101.03 114.62 101.1 114.76 101.1 114.92C101.1 115.18 101.04 115.44 100.92 115.7C100.5 116.46 100.14 117.26 99.8396 118.1C99.5596 118.92 99.4196 119.68 99.4196 120.38C99.4196 120.88 99.5796 121.13 99.8996 121.13C100.32 121.13 100.79 120.78 101.31 120.08ZM113.07 116.75C112.97 116.75 112.92 116.7 112.92 116.6C113.08 116.2 113.08 115.85 112.92 115.55C112.78 115.25 112.48 115.1 112.02 115.1C111.7 115.1 111.4 115.22 111.12 115.46C110.84 115.68 110.6 116 110.4 116.42C110.2 116.82 110.04 117.3 109.92 117.86C109.8 118.4 109.74 118.99 109.74 119.63C109.74 120.61 110.08 121.1 110.76 121.1C111.54 121.1 112.32 120.63 113.1 119.69C113.18 119.65 113.25 119.66 113.31 119.72C113.37 119.76 113.38 119.83 113.34 119.93C112.88 120.51 112.37 121.01 111.81 121.43C111.25 121.83 110.7 122.03 110.16 122.03C109.72 122.03 109.35 121.87 109.05 121.55C108.77 121.23 108.63 120.79 108.63 120.23C108.63 119.53 108.74 118.83 108.96 118.13C109.2 117.43 109.5 116.8 109.86 116.24C110.24 115.68 110.67 115.23 111.15 114.89C111.63 114.53 112.12 114.35 112.62 114.35C113.04 114.35 113.37 114.45 113.61 114.65C113.85 114.85 113.97 115.09 113.97 115.37C113.97 115.47 113.94 115.59 113.88 115.73C113.82 115.87 113.74 116.01 113.64 116.15C113.56 116.29 113.46 116.42 113.34 116.54C113.24 116.64 113.15 116.71 113.07 116.75ZM126.154 115.64C126.154 115.92 126.044 116.18 125.824 116.42C125.604 116.66 125.304 116.88 124.924 117.08C124.544 117.26 124.104 117.43 123.604 117.59C123.124 117.75 122.614 117.9 122.074 118.04C122.054 118.26 122.034 118.48 122.014 118.7C122.014 118.92 122.014 119.16 122.014 119.42C122.014 119.92 122.124 120.34 122.344 120.68C122.564 121.02 122.874 121.19 123.274 121.19C123.674 121.19 124.044 121.09 124.384 120.89C124.744 120.69 125.064 120.42 125.344 120.08C125.424 120.04 125.484 120.05 125.524 120.11C125.564 120.17 125.564 120.24 125.524 120.32C125.184 120.78 124.754 121.18 124.234 121.52C123.734 121.84 123.204 122 122.644 122C122.124 122 121.694 121.83 121.354 121.49C121.034 121.15 120.874 120.65 120.874 119.99C120.874 119.39 120.984 118.76 121.204 118.1C121.424 117.42 121.714 116.8 122.074 116.24C122.434 115.68 122.844 115.22 123.304 114.86C123.784 114.5 124.284 114.32 124.804 114.32C125.184 114.32 125.504 114.46 125.764 114.74C126.024 115 126.154 115.3 126.154 115.64ZM124.174 115.1C123.714 115.1 123.304 115.3 122.944 115.7C122.584 116.1 122.324 116.73 122.164 117.59C123.124 117.45 123.824 117.25 124.264 116.99C124.724 116.71 124.954 116.4 124.954 116.06C124.954 115.78 124.884 115.55 124.744 115.37C124.604 115.19 124.414 115.1 124.174 115.1ZM133.835 122.21C133.615 122.21 133.505 122.12 133.505 121.94C133.745 121.3 134.005 120.64 134.285 119.96C134.585 119.28 134.885 118.6 135.185 117.92C135.485 117.24 135.785 116.58 136.085 115.94C136.385 115.3 136.665 114.7 136.925 114.14C136.465 114.26 136.025 114.37 135.605 114.47C135.185 114.57 134.805 114.62 134.465 114.62C134.385 114.6 134.355 114.54 134.375 114.44C134.395 114.34 134.465 114.27 134.585 114.23C135.345 114.13 136.095 113.91 136.835 113.57C137.595 113.21 138.295 112.75 138.935 112.19C139.035 112.15 139.125 112.15 139.205 112.19C139.285 112.23 139.315 112.3 139.295 112.4C138.795 113.06 138.325 113.79 137.885 114.59C137.445 115.37 137.035 116.17 136.655 116.99C136.295 117.79 135.975 118.59 135.695 119.39C135.435 120.19 135.215 120.94 135.035 121.64C134.895 121.82 134.715 121.96 134.495 122.06C134.275 122.16 134.055 122.21 133.835 122.21ZM144.649 126.53C144.129 126.53 143.709 126.4 143.389 126.14C143.069 125.88 142.879 125.53 142.819 125.09C142.839 125.03 142.879 124.98 142.939 124.94C142.999 124.9 143.059 124.9 143.119 124.94C143.319 125.2 143.579 125.39 143.899 125.51C144.219 125.65 144.639 125.72 145.159 125.72C146.579 125.72 147.769 125.24 148.729 124.28C149.709 123.32 150.519 121.68 151.159 119.36C150.759 119.96 150.299 120.45 149.779 120.83C149.259 121.19 148.629 121.37 147.889 121.37C147.089 121.37 146.489 121.12 146.089 120.62C145.689 120.12 145.489 119.5 145.489 118.76C145.489 118.08 145.609 117.38 145.849 116.66C146.109 115.94 146.459 115.28 146.899 114.68C147.359 114.08 147.899 113.59 148.519 113.21C149.139 112.81 149.819 112.61 150.559 112.61C151.299 112.61 151.899 112.86 152.359 113.36C152.839 113.86 153.079 114.49 153.079 115.25C153.079 116.71 152.839 118.12 152.359 119.48C151.879 120.82 151.249 122.01 150.469 123.05C149.689 124.11 148.789 124.95 147.769 125.57C146.769 126.21 145.729 126.53 144.649 126.53ZM148.699 120.47C149.099 120.47 149.489 120.34 149.869 120.08C150.249 119.82 150.579 119.48 150.859 119.06C151.159 118.64 151.389 118.17 151.549 117.65C151.729 117.11 151.819 116.56 151.819 116C151.819 115.26 151.649 114.65 151.309 114.17C150.989 113.69 150.449 113.45 149.689 113.45C148.789 113.45 148.059 113.88 147.499 114.74C146.959 115.6 146.689 116.73 146.689 118.13C146.689 118.89 146.849 119.47 147.169 119.87C147.489 120.27 147.999 120.47 148.699 120.47ZM159.91 126.53C159.39 126.53 158.97 126.4 158.65 126.14C158.33 125.88 158.14 125.53 158.08 125.09C158.1 125.03 158.14 124.98 158.2 124.94C158.26 124.9 158.32 124.9 158.38 124.94C158.58 125.2 158.84 125.39 159.16 125.51C159.48 125.65 159.9 125.72 160.42 125.72C161.84 125.72 163.03 125.24 163.99 124.28C164.97 123.32 165.78 121.68 166.42 119.36C166.02 119.96 165.56 120.45 165.04 120.83C164.52 121.19 163.89 121.37 163.15 121.37C162.35 121.37 161.75 121.12 161.35 120.62C160.95 120.12 160.75 119.5 160.75 118.76C160.75 118.08 160.87 117.38 161.11 116.66C161.37 115.94 161.72 115.28 162.16 114.68C162.62 114.08 163.16 113.59 163.78 113.21C164.4 112.81 165.08 112.61 165.82 112.61C166.56 112.61 167.16 112.86 167.62 113.36C168.1 113.86 168.34 114.49 168.34 115.25C168.34 116.71 168.1 118.12 167.62 119.48C167.14 120.82 166.51 122.01 165.73 123.05C164.95 124.11 164.05 124.95 163.03 125.57C162.03 126.21 160.99 126.53 159.91 126.53ZM163.96 120.47C164.36 120.47 164.75 120.34 165.13 120.08C165.51 119.82 165.84 119.48 166.12 119.06C166.42 118.64 166.65 118.17 166.81 117.65C166.99 117.11 167.08 116.56 167.08 116C167.08 115.26 166.91 114.65 166.57 114.17C166.25 113.69 165.71 113.45 164.95 113.45C164.05 113.45 163.32 113.88 162.76 114.74C162.22 115.6 161.95 116.73 161.95 118.13C161.95 118.89 162.11 119.47 162.43 119.87C162.75 120.27 163.26 120.47 163.96 120.47ZM175.172 126.53C174.652 126.53 174.232 126.4 173.912 126.14C173.592 125.88 173.402 125.53 173.342 125.09C173.362 125.03 173.402 124.98 173.462 124.94C173.522 124.9 173.582 124.9 173.642 124.94C173.842 125.2 174.102 125.39 174.422 125.51C174.742 125.65 175.162 125.72 175.682 125.72C177.102 125.72 178.292 125.24 179.252 124.28C180.232 123.32 181.042 121.68 181.682 119.36C181.282 119.96 180.822 120.45 180.302 120.83C179.782 121.19 179.152 121.37 178.412 121.37C177.612 121.37 177.012 121.12 176.612 120.62C176.212 120.12 176.012 119.5 176.012 118.76C176.012 118.08 176.132 117.38 176.372 116.66C176.632 115.94 176.982 115.28 177.422 114.68C177.882 114.08 178.422 113.59 179.042 113.21C179.662 112.81 180.342 112.61 181.082 112.61C181.822 112.61 182.422 112.86 182.882 113.36C183.362 113.86 183.602 114.49 183.602 115.25C183.602 116.71 183.362 118.12 182.882 119.48C182.402 120.82 181.772 122.01 180.992 123.05C180.212 124.11 179.312 124.95 178.292 125.57C177.292 126.21 176.252 126.53 175.172 126.53ZM179.222 120.47C179.622 120.47 180.012 120.34 180.392 120.08C180.772 119.82 181.102 119.48 181.382 119.06C181.682 118.64 181.912 118.17 182.072 117.65C182.252 117.11 182.342 116.56 182.342 116C182.342 115.26 182.172 114.65 181.832 114.17C181.512 113.69 180.972 113.45 180.212 113.45C179.312 113.45 178.582 113.88 178.022 114.74C177.482 115.6 177.212 116.73 177.212 118.13C177.212 118.89 177.372 119.47 177.692 119.87C178.012 120.27 178.522 120.47 179.222 120.47Z" fill="url(#paint0_linear_703_1135)"/>
</g>
<g filter="url(#filter1_d_703_1135)">
<g filter="url(#filter2_bii_703_1135)">
<path fill-rule="evenodd" clip-rule="evenodd" d="M25 21.9972V2H44.0688H64.1412H85.2172V21.9972H64.1412V41.9943H104.286V2.01416H124.358V2.35353C125.31 2.13154 126.303 2.01416 127.322 2.01416H151.503C158.683 2.01416 164.503 7.83446 164.503 15.0142V34.2852C164.503 41.4649 158.683 47.2852 151.503 47.2852H145.597L177 100.333L156.21 100.693C154.389 100.725 152.693 99.7678 151.781 98.1942L124.358 50.8757V102H104.286V61.9915H64.1412V101.986H44.0688V21.9972H25Z" fill="#E7EEF5"/>
<path d="M25 2V0.5C24.1716 0.5 23.5 1.17157 23.5 2L25 2ZM25 21.9972H23.5C23.5 22.8256 24.1716 23.4972 25 23.4972V21.9972ZM85.2172 2H86.7172C86.7172 1.17157 86.0456 0.5 85.2172 0.5V2ZM85.2172 21.9972V23.4972C86.0456 23.4972 86.7172 22.8256 86.7172 21.9972H85.2172ZM64.1412 21.9972V20.4972C63.3128 20.4972 62.6412 21.1687 62.6412 21.9972H64.1412ZM64.1412 41.9943H62.6412C62.6412 42.8228 63.3128 43.4943 64.1412 43.4943V41.9943ZM104.286 41.9943V43.4943C105.114 43.4943 105.786 42.8228 105.786 41.9943H104.286ZM104.286 2.01416V0.51416C103.458 0.51416 102.786 1.18573 102.786 2.01416L104.286 2.01416ZM124.358 2.01416H125.858C125.858 1.18573 125.187 0.51416 124.358 0.51416V2.01416ZM124.358 2.35353H122.858C122.858 2.81125 123.067 3.24392 123.426 3.52846C123.784 3.81301 124.253 3.91828 124.699 3.81434L124.358 2.35353ZM145.597 47.2852V45.7852C145.058 45.7852 144.561 46.0741 144.294 46.5422C144.027 47.0103 144.032 47.5856 144.306 48.0493L145.597 47.2852ZM177 100.333L177.026 101.833C177.56 101.824 178.049 101.531 178.309 101.065C178.57 100.599 178.563 100.029 178.291 99.5692L177 100.333ZM156.21 100.693L156.184 99.1936L156.184 99.1936L156.21 100.693ZM151.781 98.1942L153.078 97.442L153.078 97.442L151.781 98.1942ZM124.358 50.8757L125.656 50.1235C125.316 49.5365 124.624 49.2509 123.969 49.4271C123.314 49.6032 122.858 50.1972 122.858 50.8757H124.358ZM124.358 102V103.5C125.187 103.5 125.858 102.828 125.858 102H124.358ZM104.286 102H102.786C102.786 102.828 103.458 103.5 104.286 103.5V102ZM104.286 61.9915H105.786C105.786 61.1631 105.114 60.4915 104.286 60.4915V61.9915ZM64.1412 61.9915V60.4915C63.3128 60.4915 62.6412 61.1631 62.6412 61.9915H64.1412ZM64.1412 101.986V103.486C64.9696 103.486 65.6412 102.814 65.6412 101.986H64.1412ZM44.0688 101.986H42.5688C42.5688 102.814 43.2404 103.486 44.0688 103.486V101.986ZM44.0688 21.9972H45.5688C45.5688 21.1687 44.8972 20.4972 44.0688 20.4972V21.9972ZM23.5 2V21.9972H26.5V2H23.5ZM44.0688 0.5H25V3.5H44.0688V0.5ZM64.1412 0.5H44.0688V3.5H64.1412V0.5ZM85.2172 0.5H64.1412V3.5H85.2172V0.5ZM86.7172 21.9972V2H83.7172V21.9972H86.7172ZM64.1412 23.4972H85.2172V20.4972H64.1412V23.4972ZM65.6412 41.9943V21.9972H62.6412V41.9943H65.6412ZM104.286 40.4943H64.1412V43.4943H104.286V40.4943ZM102.786 2.01416V41.9943H105.786V2.01416H102.786ZM124.358 0.51416H104.286V3.51416H124.358V0.51416ZM125.858 2.35353V2.01416H122.858V2.35353H125.858ZM124.699 3.81434C125.54 3.61821 126.418 3.51416 127.322 3.51416V0.51416C126.187 0.51416 125.081 0.644876 124.018 0.892716L124.699 3.81434ZM127.322 3.51416H151.503V0.51416H127.322V3.51416ZM151.503 3.51416C157.854 3.51416 163.003 8.66289 163.003 15.0142H166.003C166.003 7.00603 159.511 0.51416 151.503 0.51416V3.51416ZM163.003 15.0142V34.2852H166.003V15.0142H163.003ZM163.003 34.2852C163.003 40.6364 157.854 45.7852 151.503 45.7852V48.7852C159.511 48.7852 166.003 42.2933 166.003 34.2852H163.003ZM151.503 45.7852H145.597V48.7852H151.503V45.7852ZM178.291 99.5692L146.888 46.521L144.306 48.0493L175.709 101.097L178.291 99.5692ZM156.236 102.193L177.026 101.833L176.974 98.8335L156.184 99.1936L156.236 102.193ZM150.483 98.9463C151.668 100.992 153.871 102.234 156.236 102.193L156.184 99.1936C154.906 99.2158 153.717 98.544 153.078 97.442L150.483 98.9463ZM123.061 51.6278L150.483 98.9463L153.078 97.442L125.656 50.1235L123.061 51.6278ZM125.858 102V50.8757H122.858V102H125.858ZM104.286 103.5H124.358V100.5H104.286V103.5ZM102.786 61.9915V102H105.786V61.9915H102.786ZM64.1412 63.4915H104.286V60.4915H64.1412V63.4915ZM65.6412 101.986V61.9915H62.6412V101.986H65.6412ZM44.0688 103.486H64.1412V100.486H44.0688V103.486ZM42.5688 21.9972V101.986H45.5688V21.9972H42.5688ZM25 23.4972H44.0688V20.4972H25V23.4972Z" fill="white"/>
<path d="M25 2V0.5C24.1716 0.5 23.5 1.17157 23.5 2L25 2ZM25 21.9972H23.5C23.5 22.8256 24.1716 23.4972 25 23.4972V21.9972ZM85.2172 2H86.7172C86.7172 1.17157 86.0456 0.5 85.2172 0.5V2ZM85.2172 21.9972V23.4972C86.0456 23.4972 86.7172 22.8256 86.7172 21.9972H85.2172ZM64.1412 21.9972V20.4972C63.3128 20.4972 62.6412 21.1687 62.6412 21.9972H64.1412ZM64.1412 41.9943H62.6412C62.6412 42.8228 63.3128 43.4943 64.1412 43.4943V41.9943ZM104.286 41.9943V43.4943C105.114 43.4943 105.786 42.8228 105.786 41.9943H104.286ZM104.286 2.01416V0.51416C103.458 0.51416 102.786 1.18573 102.786 2.01416L104.286 2.01416ZM124.358 2.01416H125.858C125.858 1.18573 125.187 0.51416 124.358 0.51416V2.01416ZM124.358 2.35353H122.858C122.858 2.81125 123.067 3.24392 123.426 3.52846C123.784 3.81301 124.253 3.91828 124.699 3.81434L124.358 2.35353ZM145.597 47.2852V45.7852C145.058 45.7852 144.561 46.0741 144.294 46.5422C144.027 47.0103 144.032 47.5856 144.306 48.0493L145.597 47.2852ZM177 100.333L177.026 101.833C177.56 101.824 178.049 101.531 178.309 101.065C178.57 100.599 178.563 100.029 178.291 99.5692L177 100.333ZM156.21 100.693L156.184 99.1936L156.184 99.1936L156.21 100.693ZM151.781 98.1942L153.078 97.442L153.078 97.442L151.781 98.1942ZM124.358 50.8757L125.656 50.1235C125.316 49.5365 124.624 49.2509 123.969 49.4271C123.314 49.6032 122.858 50.1972 122.858 50.8757H124.358ZM124.358 102V103.5C125.187 103.5 125.858 102.828 125.858 102H124.358ZM104.286 102H102.786C102.786 102.828 103.458 103.5 104.286 103.5V102ZM104.286 61.9915H105.786C105.786 61.1631 105.114 60.4915 104.286 60.4915V61.9915ZM64.1412 61.9915V60.4915C63.3128 60.4915 62.6412 61.1631 62.6412 61.9915H64.1412ZM64.1412 101.986V103.486C64.9696 103.486 65.6412 102.814 65.6412 101.986H64.1412ZM44.0688 101.986H42.5688C42.5688 102.814 43.2404 103.486 44.0688 103.486V101.986ZM44.0688 21.9972H45.5688C45.5688 21.1687 44.8972 20.4972 44.0688 20.4972V21.9972ZM23.5 2V21.9972H26.5V2H23.5ZM44.0688 0.5H25V3.5H44.0688V0.5ZM64.1412 0.5H44.0688V3.5H64.1412V0.5ZM85.2172 0.5H64.1412V3.5H85.2172V0.5ZM86.7172 21.9972V2H83.7172V21.9972H86.7172ZM64.1412 23.4972H85.2172V20.4972H64.1412V23.4972ZM65.6412 41.9943V21.9972H62.6412V41.9943H65.6412ZM104.286 40.4943H64.1412V43.4943H104.286V40.4943ZM102.786 2.01416V41.9943H105.786V2.01416H102.786ZM124.358 0.51416H104.286V3.51416H124.358V0.51416ZM125.858 2.35353V2.01416H122.858V2.35353H125.858ZM124.699 3.81434C125.54 3.61821 126.418 3.51416 127.322 3.51416V0.51416C126.187 0.51416 125.081 0.644876 124.018 0.892716L124.699 3.81434ZM127.322 3.51416H151.503V0.51416H127.322V3.51416ZM151.503 3.51416C157.854 3.51416 163.003 8.66289 163.003 15.0142H166.003C166.003 7.00603 159.511 0.51416 151.503 0.51416V3.51416ZM163.003 15.0142V34.2852H166.003V15.0142H163.003ZM163.003 34.2852C163.003 40.6364 157.854 45.7852 151.503 45.7852V48.7852C159.511 48.7852 166.003 42.2933 166.003 34.2852H163.003ZM151.503 45.7852H145.597V48.7852H151.503V45.7852ZM178.291 99.5692L146.888 46.521L144.306 48.0493L175.709 101.097L178.291 99.5692ZM156.236 102.193L177.026 101.833L176.974 98.8335L156.184 99.1936L156.236 102.193ZM150.483 98.9463C151.668 100.992 153.871 102.234 156.236 102.193L156.184 99.1936C154.906 99.2158 153.717 98.544 153.078 97.442L150.483 98.9463ZM123.061 51.6278L150.483 98.9463L153.078 97.442L125.656 50.1235L123.061 51.6278ZM125.858 102V50.8757H122.858V102H125.858ZM104.286 103.5H124.358V100.5H104.286V103.5ZM102.786 61.9915V102H105.786V61.9915H102.786ZM64.1412 63.4915H104.286V60.4915H64.1412V63.4915ZM65.6412 101.986V61.9915H62.6412V101.986H65.6412ZM44.0688 103.486H64.1412V100.486H44.0688V103.486ZM42.5688 21.9972V101.986H45.5688V21.9972H42.5688ZM25 23.4972H44.0688V20.4972H25V23.4972Z" fill="white"/>
</g>
</g>
<defs>
<filter id="filter0_dd_703_1135" x="0.0771484" y="71.3199" width="224.524" height="83.2101" filterUnits="userSpaceOnUse" color-interpolation-filters="sRGB">
<feFlood flood-opacity="0" result="BackgroundImageFix"/>
<feColorMatrix in="SourceAlpha" type="matrix" values="0 0 0 0 0 0 0 0 0 0 0 0 0 0 0 0 0 0 127 0" result="hardAlpha"/>
<feOffset dx="13"/>
<feGaussianBlur stdDeviation="14"/>
<feColorMatrix type="matrix" values="0 0 0 0 0.620678 0 0 0 0 0.620451 0 0 0 0 0.695833 0 0 0 1 0"/>
<feBlend mode="darken" in2="BackgroundImageFix" result="effect1_dropShadow_703_1135"/>
<feColorMatrix in="SourceAlpha" type="matrix" values="0 0 0 0 0 0 0 0 0 0 0 0 0 0 0 0 0 0 127 0" result="hardAlpha"/>
<feOffset dy="4"/>
<feGaussianBlur stdDeviation="2"/>
<feComposite in2="hardAlpha" operator="out"/>
<feColorMatrix type="matrix" values="0 0 0 0 0 0 0 0 0 0 0 0 0 0 0 0 0 0 0.25 0"/>
<feBlend mode="normal" in2="effect1_dropShadow_703_1135" result="effect2_dropShadow_703_1135"/>
<feBlend mode="normal" in="SourceGraphic" in2="effect2_dropShadow_703_1135" result="shape"/>
</filter>
<filter id="filter1_d_703_1135" x="19.5" y="0.5" width="163" height="111" filterUnits="userSpaceOnUse" color-interpolation-filters="sRGB">
<feFlood flood-opacity="0" result="BackgroundImageFix"/>
<feColorMatrix in="SourceAlpha" type="matrix" values="0 0 0 0 0 0 0 0 0 0 0 0 0 0 0 0 0 0 127 0" result="hardAlpha"/>
<feOffset dy="4"/>
<feGaussianBlur stdDeviation="2"/>
<feComposite in2="hardAlpha" operator="out"/>
<feColorMatrix type="matrix" values="0 0 0 0 0 0 0 0 0 0 0 0 0 0 0 0 0 0 0.25 0"/>
<feBlend mode="normal" in2="BackgroundImageFix" result="effect1_dropShadow_703_1135"/>
<feBlend mode="normal" in="SourceGraphic" in2="effect1_dropShadow_703_1135" result="shape"/>
</filter>
<filter id="filter2_bii_703_1135" x="3.5" y="-19.5" width="195" height="143" filterUnits="userSpaceOnUse" color-interpolation-filters="sRGB">
<feFlood flood-opacity="0" result="BackgroundImageFix"/>
<feGaussianBlur in="BackgroundImageFix" stdDeviation="10"/>
<feComposite in2="SourceAlpha" operator="in" result="effect1_backgroundBlur_703_1135"/>
<feBlend mode="normal" in="SourceGraphic" in2="effect1_backgroundBlur_703_1135" result="shape"/>
<feColorMatrix in="SourceAlpha" type="matrix" values="0 0 0 0 0 0 0 0 0 0 0 0 0 0 0 0 0 0 127 0" result="hardAlpha"/>
<feOffset dx="-5" dy="-5"/>
<feGaussianBlur stdDeviation="5"/>
<feComposite in2="hardAlpha" operator="arithmetic" k2="-1" k3="1"/>
<feColorMatrix type="matrix" values="0 0 0 0 0.906354 0 0 0 0 0.934427 0 0 0 0 0.9625 0 0 0 1 0"/>
<feBlend mode="normal" in2="shape" result="effect2_innerShadow_703_1135"/>
<feColorMatrix in="SourceAlpha" type="matrix" values="0 0 0 0 0 0 0 0 0 0 0 0 0 0 0 0 0 0 127 0" result="hardAlpha"/>
<feOffset dx="5" dy="5"/>
<feGaussianBlur stdDeviation="5"/>
<feComposite in2="hardAlpha" operator="arithmetic" k2="-1" k3="1"/>
<feColorMatrix type="matrix" values="0 0 0 0 0.666667 0 0 0 0 0.666667 0 0 0 0 0.8 0 0 0 0.5 0"/>
<feBlend mode="normal" in2="effect2_innerShadow_703_1135" result="effect3_innerShadow_703_1135"/>
</filter>
<linearGradient id="paint0_linear_703_1135" x1="99.5" y1="105" x2="99.5" y2="124" gradientUnits="userSpaceOnUse">
<stop stop-color="white"/>
<stop offset="1" stop-color="white" stop-opacity="0"/>
</linearGradient>
</defs>
</svg>
